<svg width="515" height="157" viewBox="0 0 515 157" fill="none" xmlns="http://www.w3.org/2000/svg">
<path d="M159.57 1.02397C156.592 2.69157 156.673 2.51604 154.098 15.3595C153.937 16.3249 153.575 18.1096 153.293 19.3091C153.052 20.5086 152.488 23.2879 152.086 25.4529C151.643 27.6178 151.12 30.1924 150.919 31.1578C150.678 32.1233 150.235 34.3467 149.873 36.1314C149.511 37.8867 149.068 40.198 148.867 41.2512C148.626 42.3044 148.103 44.996 147.66 47.2487C146.292 53.9776 145.648 57.0495 145.045 59.9751C144.723 61.4965 143.878 65.6508 143.234 69.1908C142.55 72.7308 141.866 76.2708 141.625 77.09C141.062 79.3427 139.613 86.6568 139.613 87.3882C139.613 87.7685 139.452 88.0611 139.211 88.0611C139.01 88.0611 138.809 87.9148 138.809 87.7392C138.809 86.9493 136.676 84.17 135.147 82.9705C133.136 81.4199 131.124 80.747 127.543 80.5422C125.209 80.3959 124.646 80.4837 122.715 81.1859C118.41 82.7657 115.714 84.9599 111.288 90.4601C107.828 94.7607 106.38 95.9602 103.201 97.1305L100.425 98.1544L50.2125 98.0374L0 97.9496V103.391V108.833H11.9898C18.548 108.833 27.118 108.891 30.9805 108.979C34.843 109.067 52.023 109.184 69.1227 109.272C101.31 109.418 100.787 109.418 105.615 108.306C112.656 106.668 118.772 102.806 123.479 97.0427L126.054 93.883L126.779 94.79C127.221 95.2873 127.543 95.7262 127.543 95.8139C127.543 95.8724 128.146 96.6916 128.871 97.6278C129.635 98.564 131.727 101.373 133.578 103.859C138.165 110.091 139.291 110.881 143.436 110.881C145.93 110.881 146.896 110.618 148.586 109.447C150.678 108.072 150.396 108.891 153.132 95.3751C154.58 88.1488 155.144 85.428 155.506 83.8189C156.029 81.4492 159.046 66.2652 159.368 64.2173C159.57 62.93 159.811 61.672 159.932 61.4379C160.012 61.2039 160.455 59.156 160.938 56.9325C161.38 54.6798 161.823 52.8074 161.903 52.7489C161.984 52.6611 162.185 53.7728 162.305 55.2064C162.426 56.6107 162.748 59.0389 162.989 60.5603C163.352 63.1641 165.484 80.1911 166.168 86.3057C166.329 87.827 167.134 94.4096 167.898 100.934C169.387 112.812 169.588 114.538 170.755 123.461C171.117 126.123 171.921 132.823 172.605 138.382C174.537 154.18 174.336 153.156 175.543 154.297C177.434 156.082 178.922 156.667 181.739 156.667C183.871 156.667 184.394 156.55 185.762 155.76C188.337 154.238 188.941 153.332 189.464 150.172C189.987 147.012 191.033 141.483 192.521 133.847C193.085 131.097 193.97 126.562 194.533 123.754C195.096 120.945 195.7 117.961 195.941 117.171C196.143 116.352 196.384 115.299 196.505 114.83C196.867 112.87 198.798 104.854 198.999 104.357C199.2 103.859 199.321 103.859 200.367 104.591C201.775 105.556 204.23 105.995 206.402 105.644C210.546 104.971 211.955 103.391 214.61 96.5453C217.99 87.7392 220.364 82.122 220.565 82.3854C220.686 82.5316 221.45 84.17 222.214 86.0131C225.675 94.2341 231.026 105.907 232.555 108.394C233.721 110.383 234.727 111.115 237.705 112.08C240.602 113.046 242.855 113.163 244.705 112.461C246.717 111.7 249.373 109.74 250.741 107.984C251.425 107.078 252.028 106.317 252.068 106.258C252.109 106.229 253.155 106.551 254.321 107.048C255.529 107.516 257.943 108.248 259.713 108.687C262.61 109.36 263.696 109.447 270.375 109.594C274.479 109.652 331.169 109.769 396.429 109.828L515 109.915V104.386V98.8858H455.171C380.979 98.8858 269.812 98.6225 266.472 98.447C265.104 98.3885 263.294 98.0667 262.449 97.7741C261.604 97.4815 259.592 96.7209 257.983 96.1357C252.672 94.1463 248.608 94.0878 244.303 95.8724C243.056 96.3991 242.573 96.4868 242.452 96.1943C242.372 95.9895 241.929 95.024 241.487 94.0586C240.642 92.1862 237.866 85.8083 235.773 80.747C235.049 79.0502 234.204 77.09 233.882 76.3586C233.561 75.6564 232.313 72.6138 231.146 69.6297C228.25 62.4327 227.485 60.6773 226.68 59.7118C224.95 57.5761 220.484 56.7277 217.105 57.9272C214.007 59.0097 214.007 59.0097 208.615 72.409C208.293 73.1989 207.569 74.9835 207.046 76.3586C206.523 77.7336 205.155 81.0688 203.988 83.8189C202.862 86.5397 201.816 89.085 201.695 89.4361C201.454 90.226 201.293 90.2553 199.442 89.6701C197.108 88.968 194.855 89.1143 191.998 90.1382C187.613 91.7473 186.728 93.1224 184.434 101.665C183.791 104.064 183.67 104.21 183.429 103.274C183.268 102.718 182.745 98.8858 182.302 94.79C181.819 90.6941 181.135 85.2817 180.813 82.7949C180.451 80.3082 180.009 76.9437 179.848 75.3346C179.646 73.7255 179.204 70.0393 178.842 67.1429C178.52 64.2465 178.037 60.3555 177.836 58.5123C177.595 56.6692 177.232 53.6851 177.031 51.9297C176.79 50.1451 176.428 47.2487 176.227 45.4933C176.025 43.7087 175.583 40.1102 175.221 37.4479C174.899 34.7856 174.416 31.0408 174.175 29.1099C173.973 27.179 173.611 24.2241 173.41 22.5273C173.169 20.8304 172.726 17.0856 172.404 14.1892C171.117 3.01338 171.036 2.69157 167.697 0.877686C166.289 0.146286 165.645 0 163.714 0C161.742 0 161.219 0.117035 159.57 1.02397Z" fill="white"/>
</svg>
